<?xml version="1.0" standalone="no"?>
<!DOCTYPE svg PUBLIC "-//W3C//DTD SVG 20010904//EN"
 "http://www.w3.org/TR/2001/REC-SVG-20010904/DTD/svg10.dtd">
<svg version="1.0" xmlns="http://www.w3.org/2000/svg"
 width="575.000000pt" height="575.000000pt" viewBox="0 0 575.000000 575.000000"
 preserveAspectRatio="xMidYMid meet">

<g transform="translate(0.000000,575.000000) scale(0.100000,-0.100000)"
fill="#000000" stroke="none">
<path d="M2631 5719 c-555 -46 -1100 -263 -1541 -615 -109 -87 -357 -335 -444
-444 -385 -482 -597 -1056 -622 -1685 -19 -474 83 -947 299 -1378 238 -477
611 -882 1072 -1164 325 -200 692 -329 1100 -389 169 -25 591 -25 760 0 648
95 1193 365 1639 812 447 446 717 991 812 1639 25 169 25 591 0 760 -48 328
-122 575 -257 855 -152 314 -328 560 -580 806 -153 149 -244 223 -421 341
-526 351 -1170 515 -1817 462z m574 -24 c338 -40 657 -136 962 -293 51 -26 92
-50 90 -54 -1 -4 29 -26 68 -49 86 -50 242 -161 332 -236 106 -87 224 -206
212 -213 -6 -4 19 -41 57 -86 126 -148 314 -417 314 -450 0 -4 -12 -20 -26
-35 l-25 -27 60 -113 c142 -270 235 -554 287 -876 21 -134 30 -510 15 -653
-55 -529 -252 -1013 -577 -1420 -87 -109 -295 -317 -404 -404 -279 -223 -619
-400 -951 -495 -410 -118 -871 -134 -1307 -46 -231 47 -551 167 -756 282 l-59
34 -47 -46 -47 -46 -113 76 c-328 219 -650 556 -837 876 -21 36 -42 66 -47 66
-13 1 -93 160 -156 308 -124 291 -213 703 -209 970 2 87 2 86 15 -60 7 -82 18
-185 24 -228 27 -185 150 -559 251 -759 169 -336 414 -625 736 -864 113 -84
182 -127 118 -73 -385 324 -647 685 -820 1128 -191 492 -227 1087 -96 1609
120 476 347 881 701 1247 98 101 109 116 53 67 -240 -210 -489 -553 -634 -874
-97 -213 -183 -519 -215 -758 -5 -40 -18 -70 -50 -117 -27 -39 -46 -81 -53
-115 -5 -29 -12 -64 -15 -78 -3 -14 -3 34 0 105 28 710 333 1391 850 1896 149
144 241 219 415 335 365 244 810 407 1234 454 274 30 479 35 650 15z m2454
-2256 c111 -514 56 -1121 -145 -1622 -372 -926 -1198 -1586 -2186 -1747 -322
-53 -717 -44 -1019 21 -96 21 -33 21 93 0 906 -152 1819 140 2468 789 434 433
706 974 802 1595 32 206 32 600 -1 800 -33 209 -34 215 -28 215 3 0 10 -23 16
-51z"/>
<path d="M2735 5494 c-386 -30 -704 -114 -1015 -269 -441 -219 -801 -544
-1065 -960 -72 -114 -193 -360 -240 -489 -227 -620 -212 -1301 42 -1909 35
-84 48 -105 58 -97 10 8 28 -19 83 -124 247 -475 645 -868 1131 -1114 l144
-73 47 46 46 45 59 -20 c99 -35 313 -88 440 -111 154 -27 502 -37 667 -19 728
78 1395 474 1791 1062 48 71 56 78 104 93 29 8 54 19 56 23 3 4 -486 285
-1087 624 l-1091 617 -6 -67 c-4 -37 -7 -98 -8 -137 -1 -38 -5 -76 -10 -84 -9
-14 -14 21 -27 201 -6 87 -6 87 -27 73 -35 -22 -2168 -1225 -2173 -1225 -13 0
-2 90 14 108 12 15 1353 1031 1817 1378 l30 23 110 -55 c61 -30 99 -47 86 -37
-152 110 -186 140 -189 163 -3 23 261 2167 273 2217 6 24 75 77 86 65 3 -4 12
-569 18 -1257 6 -687 14 -1251 17 -1254 3 -3 76 31 163 75 l158 81 899 -679
c1034 -782 956 -724 948 -705 -3 8 12 50 34 93 93 186 181 467 217 694 11 67
19 192 22 345 l5 240 24 -68 c12 -38 34 -86 48 -106 23 -33 26 -46 26 -132 0
-185 -41 -450 -102 -654 -124 -418 -329 -768 -637 -1089 -79 -81 -102 -109
-61 -73 143 127 331 354 444 537 569 919 518 2083 -128 2948 -425 569 -1067
946 -1766 1036 -119 16 -387 27 -475 20z m35 -144 c0 -5 -18 -10 -39 -10 -58
0 -260 -28 -376 -51 -340 -70 -751 -268 -1040 -502 -116 -94 -320 -306 -407
-424 -165 -222 -293 -465 -376 -718 -88 -263 -122 -484 -121 -773 0 -103 4
-218 8 -257 5 -38 5 -74 1 -79 -25 -27 -34 487 -11 654 73 537 303 1019 669
1401 414 433 955 696 1552 758 121 12 140 12 140 1z m378 -6 c41 -3 70 -9 65
-13 -12 -10 -233 10 -233 22 0 5 21 6 48 3 26 -3 80 -8 120 -12z m-378 -31
c-1 -5 -72 -500 -158 -1100 l-157 -1093 -878 -690 -877 -690 -29 58 c-73 146
-150 367 -191 552 -59 266 -71 611 -31 875 107 703 490 1304 1080 1697 292
193 635 325 984 378 127 19 257 25 257 13z m457 -13 c513 -75 968 -297 1342
-656 639 -612 900 -1513 686 -2364 -47 -187 -181 -530 -207 -530 -9 0 -1684
1307 -1730 1350 -26 25 -28 34 -177 1105 -83 594 -153 1088 -155 1098 -4 15 4
17 52 17 32 0 116 -9 189 -20z m867 -160 c173 -104 285 -188 436 -324 142
-128 314 -337 434 -526 93 -148 204 -386 261 -558 27 -83 11 -71 -19 14 -68
190 -205 440 -342 624 -43 58 -135 163 -204 234 -199 204 -377 339 -638 481
l-123 68 27 28 c15 16 33 29 40 29 6 0 64 -32 128 -70z m1165 -1530 c0 -9 -4
-8 -9 5 -5 11 -9 27 -9 35 0 9 4 8 9 -5 5 -11 9 -27 9 -35z m-1804 -1455
c1296 -522 1479 -596 1483 -600 6 -6 -74 -119 -158 -223 -101 -126 -298 -317
-425 -413 -746 -560 -1728 -654 -2560 -244 -349 172 -652 425 -891 744 -51 69
-94 128 -94 131 0 3 465 193 1033 421 l1032 415 50 -19 c28 -10 266 -106 530
-212z"/>
<path d="M1124 4918 l-19 -23 23 19 c21 18 27 26 19 26 -2 0 -12 -10 -23 -22z"/>
</g>
</svg>
